<?xml version="1.0" encoding="utf-8"?>
<!-- Generator: Adobe Illustrator 16.0.0, SVG Export Plug-In . SVG Version: 6.00 Build 0)  -->
<!DOCTYPE svg PUBLIC "-//W3C//DTD SVG 1.1//EN" "http://www.w3.org/Graphics/SVG/1.1/DTD/svg11.dtd">
<svg version="1.1" xmlns="http://www.w3.org/2000/svg" xmlns:xlink="http://www.w3.org/1999/xlink" x="0px" y="0px" width="1024px"
	 height="1024px" viewBox="0 0 1024 1024" enable-background="new 0 0 1024 1024" xml:space="preserve">
<g id="Layer_2">
	<rect y="1.001" fill="#FFFFFF" width="1024" height="1023.999"/>
</g>
<g id="Layer_1">
	<g>
		<path d="M934.79,343.951c-0.039,0.024-0.077,0.053-0.119,0.077c0.056,0.021,0.124,0.031,0.18,0.052
			C935.716,344.035,935.698,343.988,934.79,343.951z"/>
		<path d="M977.097,292.565c-16.955,13.967-25.134,24.962-46.907,17.668c-20.913-7.008-30.405-3.187-39.461,17.069
			c-7.637,17.097-24.012,28.339-43.053,16.415c-3.228-2.018-31.643-19.627-37.371-15.247c25.673,6.588,42.333,36.981,68.229,46.639
			c31.61,11.787,34.957-18.032,56.137-31.08c-7.164-2.437-36.96,12.477-27.229-5.749c5.461-10.24,27.329-5.959,36.803-8.652
			c26.922-7.643,43.743-43.367,77.82-25.523C1016.073,287.407,987.962,283.615,977.097,292.565z"/>
		<path d="M992.554,714.732c-5.405-9.349-11.634-18.146-18.451-26.363c-3.399-4.118-6.999-8.035-10.684-11.859l-5.655-5.604
			l-2.036-2.05l-1.104-1.094l-1.421-1.339c-3.878-3.649-7.393-6.866-11.523-10.271c-1.981-1.683-4.083-3.348-6.252-4.994
			c-2.109-1.667-4.361-3.266-6.632-4.843c-9.073-6.327-18.962-11.94-28.872-16.521c-19.948-9.242-39.551-14.564-57.978-18.304
			c-18.524-3.767-36.203-5.846-53.447-7.409c-17.257-1.479-34.046-2.432-50.659-3.067c-16.629-0.814-33.008-1.206-49.24-1.369
			c-16.267-0.237-32.336-0.289-48.329-0.173c-15.982,0.117-31.817,0.555-47.569,1.003c-7.871,0.191-15.674,0.659-23.492,1.005
			l-10.324,0.459l-8.145,0.092c-5.854-0.026-11.668-0.146-17.367-0.402c-5.692-0.276-11.309-0.78-16.761-1.33
			c-5.438-0.584-10.788-1.257-15.876-2.206c-5.076-0.924-10.082-1.773-14.713-3.008c-9.313-2.401-17.722-5.09-24.796-8.282
			c-3.553-1.55-6.853-3.184-9.782-4.893c-2.965-1.709-5.718-3.418-8.147-5.284c-1.31-0.873-2.359-1.902-3.619-2.786
			c-1.042-1.041-2.306-1.916-3.282-3.022c-2.242-2.005-4.111-4.288-6.14-6.769c-2.421-3.539-5.072-7.906-7.582-12.335
			c-2.507-4.452-4.885-9.051-7.063-13.652c-4.432-9.188-8.107-18.422-10.962-27.24c-2.874-8.82-4.82-17.261-5.998-24.987
			c-1.111-7.748-1.451-14.764-1.027-21.127c0.201-3.201,0.658-6.18,1.157-9.177c0.658-2.896,1.348-5.8,2.391-8.603
			c1.873-5.705,5.006-11.172,9.016-16.764c8.088-11.099,20.985-21.625,35.579-30.428c14.804-8.645,30.927-16.221,47.145-21.946
			c15.747-5.854,31.259-10.562,46.048-14.524c26.438,12.752,61.813,5.251,87.056-4.709c-6.492,11.715-14.89,21.141-26.188,28.513
			c-11.29,7.371-24.509,9.774-35.455,16.743c37.896,22.695,82.31-13.52,116.711-25.114c29.526-9.952,90.07-2.054,83.805,41.856
			c-1.232,8.624-8.021,17.733-13.959,24.003c19.854-7.158,39.549-17.867,51.933-35.962c10.645-15.557,19.587-45.276,13.451-64.158
			c-4.817,7.567-9.068,14.827-15.361,21.014c2.346-7.991,2.494-20.565-1.442-28.163c-7.792,20.395-20.415,30.607-43.924,22.012
			c-18.665-6.84-31.633-28.354-51.36-31.092c26.609-9.532,53.389-17.315,79.796-27.284c10.756-4.054,29.509-9.66,41.564-5.671
			c16.612,5.494,14.574,20.089,14.234,31.871c5.968-8.877,5.479-19.425,10.187-28.459c11.312,7.998,5.641,22.535,3.795,33.558
			c19.99-17.021,57.222-65.026,21.084-82.685c-33.412-16.331-79.461-0.26-112.417,7.14c-8.669,1.952-45.646,11.006-37.996-10.456
			c5.28-14.828,30.822-20.602,41.585-13.426h2.394c14.783-34.411-39.352-49.05-62.191-50.228c-17.89-0.924-32.598,1.12-50.164-3.849
			c-17.044-4.832-28.571-15.546-42.867-24.731c0.616,11.099,5.976,20.376,13.981,28.337c-26.403,5.437-61.861-24.133-83.564-37.129
			c-18.483-11.072-34.355-26.262-47.864-42.753c-11.282-13.771-13.869-28.898-21.254-42.959
			c-14.4,63.747,23.987,120.432,73.782,153.907c-16.189,3.148-39.426-7.989-54.951-12.584
			c-20.355-6.027-42.271-13.473-63.385-13.455c-32.784,0.047-65.061,18.453-84.755,44.005c10.814,2.056,24.066-1.39,35.457-0.952
			c16.869,0.644,32.672,4.727,47.869,12.258c21.761,10.782,36.036,31.682,50.493,49.929c0.42,0.525,0.897,1.036,1.327,1.557
			c-1.206,0.051-2.396,0.09-3.616,0.153c-20.965,1.325-43.932,4.19-68.703,10.995c-12.387,3.564-25.249,8.084-38.394,14.293
			c-7.953,3.774-16.036,8.18-24.063,13.365c-3.301-18.631-16.77-36.168-32.438-48.888c20.921-7.031,46.119-7.087,65.845-2.656
			c-25.722-30.861-81.347-32.254-122.996-20.224c-39.028-2.685-81.005,14.708-111.615,34.652
			c-67.23,43.801-83.86,131.925-142.448,181.67c38.581,0.757,64.987-40.065,88.486-64.745c26.647-27.985,55.7-59.273,96.005-64.087
			c0.184,1.36,0.665,2.688,1.467,3.689c-7.509,17.255-20.28,33.884-24.803,52.435c-8.237,33.772,8.688,19.959,25.16,3.583
			c12.392-12.317,32.416-36.237,50.978-39.438c24.851-4.289,18.444,19.688,12.406,35.342c10.687,5.912,28.604-12.344,47.803-29.239
			c-1.829,2.36-3.627,4.761-5.351,7.25c-5.337,7.516-9.94,15.673-14.183,24.098c-4.034,8.478-7.701,17.278-10.454,26.294
			c-5.653,18.017-8.669,36.61-9.462,54.791c-0.877,18.215,0.432,36.029,3.067,53.323c2.679,17.302,6.841,34.052,12.092,50.483
			c2.673,8.205,5.631,16.322,8.93,24.456c3.294,8.156,6.926,16.241,11.424,24.896c10.043,19.279,23.519,38.02,39.722,53.576
			c3.996,3.988,8.209,7.63,12.459,11.285c4.309,3.477,8.687,7.011,13.193,10.115c8.954,6.491,18.313,12.011,27.771,16.976
			c18.988,9.832,38.469,16.895,57.839,21.634c9.703,2.449,19.305,4.296,28.921,5.773c9.616,1.41,19.139,2.303,28.634,2.952
			c18.97,1.059,37.698,0.748,56.23-1.095l6.983-0.717l7.56-0.9l1.796-0.23l1.409-0.212l2.82-0.448l1.408-0.229l0.707-0.113
			c0.064-0.017,1.962-0.242,1.483-0.206l2.742-0.496c7.315-1.328,14.672-2.612,21.998-4.046c14.662-2.776,29.373-5.406,44.062-7.989
			c7.333-1.268,14.707-2.593,22.025-3.758c7.354-1.214,14.677-2.425,21.997-3.436c14.643-2.099,29.242-3.991,43.641-5.472
			c14.403-1.339,28.697-2.39,42.487-2.599c13.787-0.311,27.133,0.085,39.255,1.242c12.185,1.129,22.962,3.11,31.543,5.932
			c4.348,1.416,8.204,3,12.098,5.051c0.972,0.513,1.958,1.018,2.96,1.632c0.994,0.559,2.012,1.159,3.06,1.86
			c2.022,1.241,4.413,2.984,6.348,4.374l0.769,0.548c0.214,0.144,0.702,0.563,1.042,0.828l2.251,1.813
			c0.964,0.686,1.837,1.524,2.767,2.274c1.776,1.581,3.535,3.178,5.156,4.855c3.271,3.342,6.248,6.868,8.814,10.566
			c5.17,7.361,8.854,15.383,10.827,23.211c1.966,7.807,2.189,15.37,1.111,21.196c-1.09,5.942-3.112,9.71-5.559,12.483
			c-2.552,2.735-6.219,5.174-13.472,6.385c-4.59,1.294-14.624,0.692-26.057-1.815c-11.51-2.439-24.463-6.385-38.232-10.459
			c-13.816-4.065-28.563-8.417-45.127-11.439c-8.283-1.493-17.091-2.622-26.521-2.897c-9.421-0.27-19.553,0.394-29.93,2.768
			c-10.336,2.328-20.853,6.495-30.009,12.266c-9.25,5.708-16.962,12.842-23.226,20.172c-3.082,3.681-5.887,7.421-8.33,11.17
			c-1.222,1.871-2.432,3.752-3.49,5.615l-1.626,2.807l-1.655,3.09l-1.578,3.042l-0.998,2.171l-0.496,1.087l-0.251,0.542
			c0.204-0.372-0.552,1.118-0.538,1.094l-0.665,1.499c-0.835,2.078-1.805,3.908-2.731,5.781
			c-3.956,7.167-8.323,12.664-14.085,16.776c-5.729,4.149-13.011,7.316-21.747,9.139c-8.653,1.898-18.396,2.602-28.347,2.602
			c-9.952,0.004-20.203-0.593-30.344-1.463c-20.354-1.811-40.407-4.56-59.637-6.623c-19.231-2.095-37.693-3.543-55.035-3.597
			c-17.342-0.07-33.566,1.507-48.021,4.437c-7.23,1.512-14.006,3.366-20.273,5.448c-6.243,2.213-12.018,4.461-17.184,7.06
			c-10.387,5.028-18.53,10.533-24.646,15.451c-3.081,2.467-5.645,4.697-7.891,6.773c-2.156,2.099-4.211,3.929-5.399,5.285
			c-2.569,2.761-3.897,4.188-3.897,4.188l10.648,11.59c0,0,1.534-1.201,4.503-3.535c1.518-1.255,3.203-2.249,5.282-3.737
			c2.083-1.388,4.679-3.019,7.593-4.67c11.673-6.682,30.089-14.285,55.115-15.562c12.49-0.689,26.492,0.114,41.837,2.235
			c15.361,2.135,32.024,5.708,50.069,10.184c18.073,4.445,37.487,9.853,59.069,14.767c10.838,2.386,22.189,4.772,34.49,6.265
			c12.274,1.503,25.471,2.4,39.929,1.19c14.331-1.124,30.327-4.79,45.619-12.779c7.613-3.963,14.952-8.996,21.465-14.841
			c6.546-5.828,12.326-12.362,17.368-19.211c2.424-3.438,4.832-6.938,6.897-10.49l1.615-2.672c0.214-0.386-0.369,0.764,0.021,0.044
			l0.314-0.509l0.623-1.017l1.25-2.041c0.329-0.473,0.555-0.715,0.829-1.092l0.772-1.038l0.977-1.231
			c0.635-0.857,1.297-1.591,1.944-2.337c1.291-1.494,2.604-2.736,3.867-3.867c2.567-2.152,4.925-3.583,7.149-4.36
			c2.228-0.831,4.383-1.189,7.155-1.317c5.416-0.261,13.854,0.924,24.016,4.084c10.162,3.091,21.687,7.784,34.266,13.112
			c12.639,5.303,26.247,11.302,42.257,16.728c8.024,2.687,16.689,5.255,26.431,7.137c4.892,0.928,10.044,1.688,15.516,2.156
			c5.435,0.464,11.411,0.604,17.373,0.238l1.365-0.062l0.686-0.036l1.17-0.102l4.969-0.512c2.977-0.397,5.724-0.765,8.645-1.353
			c5.756-1.096,11.585-2.576,17.391-4.608c11.597-4.021,23.102-10.017,33.314-17.948c10.229-7.89,19.119-17.563,26.141-28.1
			c7.063-10.541,12.256-21.903,15.827-33.384c7.169-23.036,7.943-46.424,4.479-68.384
			C1011.157,754.161,1003.406,733.4,992.554,714.732z"/>
	</g>
</g>
</svg>
